{
	"asset":{
		"generator":"Khronos glTF Blender I/O v4.1.63",
		"version":"2.0"
	},
	"scene":0,
	"scenes":[
		{
			"name":"Scene",
			"nodes":[
				0
			]
		}
	],
	"nodes":[
		{
			"mesh":0,
			"name":"corpo",
			"rotation":[
				1,
				0,
				0,
				0
			]
		}
	],
	"materials":[
		{
			"doubleSided":true,
			"name":"redColor",
			"pbrMetallicRoughness":{
				"baseColorTexture":{
					"index":0
				},
				"metallicFactor":0,
				"roughnessFactor":0.5
			}
		}
	],
	"meshes":[
		{
			"name":"Malha",
			"primitives":[
				{
					"attributes":{
						"POSITION":0,
						"NORMAL":1,
						"TEXCOORD_0":2
					},
					"indices":3,
					"material":0
				}
			]
		}
	],
	"textures":[
		{
			"sampler":0,
			"source":0
		}
	],
	"images":[
		{
			"mimeType":"image/png",
			"name":"redImage",
			"uri":"textures/redImage.png"
		}
	],
	"accessors":[
		{
			"bufferView":0,
			"componentType":5126,
			"count":79534,
			"max":[
				3.80021595954895,
				0.7643742561340332,
				0.21488654613494873
			],
			"min":[
				-3.7888216972351074,
				-5.231008529663086,
				-1.3809348344802856
			],
			"type":"VEC3"
		},
		{
			"bufferView":1,
			"componentType":5126,
			"count":79534,
			"type":"VEC3"
		},
		{
			"bufferView":2,
			"componentType":5126,
			"count":79534,
			"type":"VEC2"
		},
		{
			"bufferView":3,
			"componentType":5125,
			"count":117984,
			"type":"SCALAR"
		}
	],
	"bufferViews":[
		{
			"buffer":0,
			"byteLength":954408,
			"byteOffset":0,
			"target":34962
		},
		{
			"buffer":0,
			"byteLength":954408,
			"byteOffset":954408,
			"target":34962
		},
		{
			"buffer":0,
			"byteLength":636272,
			"byteOffset":1908816,
			"target":34962
		},
		{
			"buffer":0,
			"byteLength":471936,
			"byteOffset":2545088,
			"target":34963
		}
	],
	"samplers":[
		{
			"magFilter":9729,
			"minFilter":9987
		}
	],
	"buffers":[
		{
			"byteLength":3017024,
			"uri":"mapinguari_5.bin"
		}
	]
}
