{
	"asset":{
		"generator":"Khronos glTF Blender I/O v4.1.63",
		"version":"2.0"
	},
	"scene":0,
	"scenes":[
		{
			"name":"Scene",
			"nodes":[
				16,
				33
			]
		}
	],
	"nodes":[
		{
			"name":"Osso(s).004",
			"rotation":[
				0.04268713667988777,
				-0.0003055810811929405,
				-0.05811602622270584,
				0.99739670753479
			],
			"scale":[
				1,
				1.0000001192092896,
				1.000000238418579
			],
			"translation":[
				1.3357903583255393e-07,
				1.3928589820861816,
				-2.3981556296348572e-08
			]
		},
		{
			"children":[
				0
			],
			"name":"Osso(s).003",
			"rotation":[
				-0.016699330881237984,
				0.008538715541362762,
				-0.4551721215248108,
				0.8902059197425842
			],
			"scale":[
				0.9999998211860657,
				0.9999997615814209,
				0.9999998807907104
			],
			"translation":[
				1.1749343542533097e-07,
				0.3552266061306,
				7.076894803503819e-08
			]
		},
		{
			"children":[
				1
			],
			"name":"Osso(s).002",
			"rotation":[
				-9.72984750546857e-08,
				-4.0576388471436076e-08,
				0.510556697845459,
				0.8598440885543823
			],
			"scale":[
				1,
				1.0000001192092896,
				1.0000001192092896
			],
			"translation":[
				-1.1616577211270851e-07,
				1.1388633251190186,
				4.5194772368972735e-09
			]
		},
		{
			"name":"Osso(s).007",
			"rotation":[
				0.042386893182992935,
				0.00041968104778788984,
				0.06486368924379349,
				0.9969934225082397
			],
			"scale":[
				0.9999998211860657,
				0.9999998807907104,
				0.9999998807907104
			],
			"translation":[
				-2.5338625420090466e-08,
				1.4506338834762573,
				2.7241185307502747e-08
			]
		},
		{
			"children":[
				3
			],
			"name":"Osso(s).006",
			"rotation":[
				-0.015961863100528717,
				-0.008338618092238903,
				0.4629667401313782,
				0.8861927390098572
			],
			"scale":[
				0.9999998211860657,
				0.9999999403953552,
				0.9999998807907104
			],
			"translation":[
				-2.6806276309798704e-07,
				0.31308677792549133,
				1.949127437228526e-08
			]
		},
		{
			"children":[
				4
			],
			"name":"Osso(s).005",
			"rotation":[
				1.5162923716616206e-07,
				8.516718708051485e-08,
				-0.5359423756599426,
				0.8442546129226685
			],
			"scale":[
				0.9999999403953552,
				0.9999999403953552,
				1.0000001192092896
			],
			"translation":[
				1.4219390997993742e-08,
				1.1388633251190186,
				4.519490115484359e-09
			]
		},
		{
			"children":[
				2,
				5
			],
			"name":"Osso(s).001",
			"rotation":[
				1.617157892042087e-07,
				1.7966753418363623e-08,
				0.0004178756498731673,
				0.9999999403953552
			],
			"scale":[
				1,
				1,
				1.0000001192092896
			],
			"translation":[
				-8.268742135442153e-09,
				1.0000009536743164,
				-1.7782442185421132e-08
			]
		},
		{
			"children":[
				6
			],
			"name":"Osso(s)",
			"rotation":[
				-4.480578041921035e-08,
				2.9135723167428296e-08,
				-9.313224635931761e-10,
				1
			],
			"scale":[
				1.0000001192092896,
				1.0000001192092896,
				1.0000001192092896
			],
			"translation":[
				-1.199805410578847e-08,
				5.776438456450705e-07,
				0.8985150456428528
			]
		},
		{
			"name":"Osso(s).010",
			"rotation":[
				-0.20890238881111145,
				-0.01517549715936184,
				-0.0008662593318149447,
				0.9778184294700623
			],
			"scale":[
				0.9999998807907104,
				0.9999998211860657,
				0.9999997615814209
			],
			"translation":[
				-1.4901161193847656e-08,
				1.4663456678390503,
				-1.0285491498507326e-06
			]
		},
		{
			"children":[
				8
			],
			"name":"Osso(s).009",
			"rotation":[
				0.19189772009849548,
				0.0068757920525968075,
				-0.03514134883880615,
				0.9807614684104919
			],
			"scale":[
				0.9999998807907104,
				1.0000001192092896,
				1
			],
			"translation":[
				-4.35122515796138e-09,
				0.3245563805103302,
				-1.2808403937469848e-07
			]
		},
		{
			"children":[
				9
			],
			"name":"Osso(s).008",
			"rotation":[
				-0.48578307032585144,
				-0.5138236880302429,
				-0.485783189535141,
				0.5138236880302429
			],
			"scale":[
				1.0000001192092896,
				1.0000001192092896,
				1.000000238418579
			],
			"translation":[
				-1.199805410578847e-08,
				5.776438456450705e-07,
				0.8985150456428528
			]
		},
		{
			"name":"Osso(s).013",
			"rotation":[
				-0.2292151004076004,
				0.021380729973316193,
				-0.017320265993475914,
				0.9729868173599243
			],
			"scale":[
				1,
				1.0000001192092896,
				0.9999999403953552
			],
			"translation":[
				-4.470348358154297e-08,
				1.4292497634887695,
				2.2485332351607212e-07
			]
		},
		{
			"children":[
				11
			],
			"name":"Osso(s).012",
			"rotation":[
				0.20176252722740173,
				-0.01118993479758501,
				0.054233383387327194,
				0.9778677821159363
			],
			"translation":[
				6.978100763888051e-09,
				0.31413131952285767,
				4.4208783833710186e-07
			]
		},
		{
			"children":[
				12
			],
			"name":"Osso(s).011",
			"rotation":[
				-0.4809271991252899,
				0.51837158203125,
				0.48092716932296753,
				0.51837158203125
			],
			"scale":[
				1.0000001192092896,
				1.0000001192092896,
				1
			],
			"translation":[
				-1.199805410578847e-08,
				5.776438456450705e-07,
				0.8985150456428528
			]
		},
		{
			"name":"Osso(s).014",
			"rotation":[
				-0.6997133493423462,
				-0.10204906761646271,
				0.6988194584846497,
				0.10788259655237198
			],
			"scale":[
				1.0000001192092896,
				1.0000003576278687,
				1.000000238418579
			],
			"translation":[
				-1.199805410578847e-08,
				5.776438456450705e-07,
				0.8985150456428528
			]
		},
		{
			"mesh":0,
			"name":"corpo",
			"skin":0
		},
		{
			"children":[
				15,
				7,
				10,
				13,
				14
			],
			"name":"Arma\u00e7\u00e3o",
			"rotation":[
				0,
				0,
				-0.9999912977218628,
				0.004169139079749584
			],
			"scale":[
				1.0068656206130981,
				1.0068656206130981,
				1.0068657398223877
			],
			"translation":[
				-0.000102996826171875,
				5.262880802154541,
				-0.7779014110565186
			]
		},
		{
			"name":"Osso(s).004",
			"rotation":[
				0.04268713667988777,
				-0.0003055810811929405,
				-0.05811602622270584,
				0.99739670753479
			],
			"scale":[
				1,
				1.0000001192092896,
				1.000000238418579
			],
			"translation":[
				1.3357903583255393e-07,
				1.3928589820861816,
				-2.3981556296348572e-08
			]
		},
		{
			"children":[
				17
			],
			"name":"Osso(s).003",
			"rotation":[
				-0.016699330881237984,
				0.008538715541362762,
				-0.4551721215248108,
				0.8902059197425842
			],
			"scale":[
				0.9999998211860657,
				0.9999997615814209,
				0.9999998807907104
			],
			"translation":[
				1.1749343542533097e-07,
				0.3552266061306,
				7.076894803503819e-08
			]
		},
		{
			"children":[
				18
			],
			"name":"Osso(s).002",
			"rotation":[
				-9.72984750546857e-08,
				-4.0576388471436076e-08,
				0.510556697845459,
				0.8598440885543823
			],
			"scale":[
				1,
				1.0000001192092896,
				1.0000001192092896
			],
			"translation":[
				-1.1616577211270851e-07,
				1.1388633251190186,
				4.5194772368972735e-09
			]
		},
		{
			"name":"Osso(s).007",
			"rotation":[
				0.042386893182992935,
				0.00041968104778788984,
				0.06486368924379349,
				0.9969934225082397
			],
			"scale":[
				0.9999998211860657,
				0.9999998807907104,
				0.9999998807907104
			],
			"translation":[
				-2.5338625420090466e-08,
				1.4506338834762573,
				2.7241185307502747e-08
			]
		},
		{
			"children":[
				20
			],
			"name":"Osso(s).006",
			"rotation":[
				-0.015961863100528717,
				-0.008338618092238903,
				0.4629667401313782,
				0.8861927390098572
			],
			"scale":[
				0.9999998211860657,
				0.9999999403953552,
				0.9999998807907104
			],
			"translation":[
				-2.6806276309798704e-07,
				0.31308677792549133,
				1.949127437228526e-08
			]
		},
		{
			"children":[
				21
			],
			"name":"Osso(s).005",
			"rotation":[
				1.5162923716616206e-07,
				8.516718708051485e-08,
				-0.5359423756599426,
				0.8442546129226685
			],
			"scale":[
				0.9999999403953552,
				0.9999999403953552,
				1.0000001192092896
			],
			"translation":[
				1.4219390997993742e-08,
				1.1388633251190186,
				4.519490115484359e-09
			]
		},
		{
			"children":[
				19,
				22
			],
			"name":"Osso(s).001",
			"rotation":[
				1.617157892042087e-07,
				1.7966753418363623e-08,
				0.0004178756498731673,
				0.9999999403953552
			],
			"scale":[
				1,
				1,
				1.0000001192092896
			],
			"translation":[
				-8.268742135442153e-09,
				1.0000009536743164,
				-1.7782442185421132e-08
			]
		},
		{
			"children":[
				23
			],
			"name":"Osso(s)",
			"rotation":[
				-4.480578041921035e-08,
				2.9135723167428296e-08,
				-9.313224635931761e-10,
				1
			],
			"scale":[
				1.0000001192092896,
				1.0000001192092896,
				1.0000001192092896
			],
			"translation":[
				-1.199805410578847e-08,
				5.776438456450705e-07,
				0.8985150456428528
			]
		},
		{
			"name":"Osso(s).010",
			"rotation":[
				-0.20890238881111145,
				-0.01517549715936184,
				-0.0008662593318149447,
				0.9778184294700623
			],
			"scale":[
				0.9999998807907104,
				0.9999998211860657,
				0.9999997615814209
			],
			"translation":[
				-1.4901161193847656e-08,
				1.4663456678390503,
				-1.0285491498507326e-06
			]
		},
		{
			"children":[
				25
			],
			"name":"Osso(s).009",
			"rotation":[
				0.19189772009849548,
				0.0068757920525968075,
				-0.03514134883880615,
				0.9807614684104919
			],
			"scale":[
				0.9999998807907104,
				1.0000001192092896,
				1
			],
			"translation":[
				-4.35122515796138e-09,
				0.3245563805103302,
				-1.2808403937469848e-07
			]
		},
		{
			"children":[
				26
			],
			"name":"Osso(s).008",
			"rotation":[
				-0.48578307032585144,
				-0.5138236880302429,
				-0.485783189535141,
				0.5138236880302429
			],
			"scale":[
				1.0000001192092896,
				1.0000001192092896,
				1.000000238418579
			],
			"translation":[
				-1.199805410578847e-08,
				5.776438456450705e-07,
				0.8985150456428528
			]
		},
		{
			"name":"Osso(s).013",
			"rotation":[
				-0.2292151004076004,
				0.021380729973316193,
				-0.017320265993475914,
				0.9729868173599243
			],
			"scale":[
				1,
				1.0000001192092896,
				0.9999999403953552
			],
			"translation":[
				-4.470348358154297e-08,
				1.4292497634887695,
				2.2485332351607212e-07
			]
		},
		{
			"children":[
				28
			],
			"name":"Osso(s).012",
			"rotation":[
				0.20176252722740173,
				-0.01118993479758501,
				0.054233383387327194,
				0.9778677821159363
			],
			"translation":[
				6.978100763888051e-09,
				0.31413131952285767,
				4.4208783833710186e-07
			]
		},
		{
			"children":[
				29
			],
			"name":"Osso(s).011",
			"rotation":[
				-0.4809271991252899,
				0.51837158203125,
				0.48092716932296753,
				0.51837158203125
			],
			"scale":[
				1.0000001192092896,
				1.0000001192092896,
				1
			],
			"translation":[
				-1.199805410578847e-08,
				5.776438456450705e-07,
				0.8985150456428528
			]
		},
		{
			"name":"Osso(s).014",
			"rotation":[
				-0.6997133493423462,
				-0.10204906761646271,
				0.6988194584846497,
				0.10788259655237198
			],
			"scale":[
				1.0000001192092896,
				1.0000003576278687,
				1.000000238418579
			],
			"translation":[
				-1.199805410578847e-08,
				5.776438456450705e-07,
				0.8985150456428528
			]
		},
		{
			"mesh":1,
			"name":"corpo.001",
			"skin":1
		},
		{
			"children":[
				32,
				24,
				27,
				30,
				31
			],
			"name":"Arma\u00e7\u00e3o.001",
			"rotation":[
				0,
				0,
				-0.9999912977218628,
				0.004169139079749584
			],
			"scale":[
				1.0068656206130981,
				1.0068656206130981,
				1.0068657398223877
			],
			"translation":[
				-0.000102996826171875,
				5.262880802154541,
				-0.7779014110565186
			]
		}
	],
	"materials":[
		{
			"doubleSided":true,
			"name":"Materiais.001",
			"pbrMetallicRoughness":{
				"metallicFactor":0,
				"roughnessFactor":0.5
			}
		},
		{
			"doubleSided":true,
			"name":"Materiais.002",
			"pbrMetallicRoughness":{
				"baseColorTexture":{
					"index":0
				},
				"metallicFactor":0,
				"roughnessFactor":0.5
			}
		}
	],
	"meshes":[
		{
			"name":"Malha",
			"primitives":[
				{
					"attributes":{
						"POSITION":0,
						"NORMAL":1,
						"TEXCOORD_0":2,
						"TEXCOORD_1":3,
						"JOINTS_0":4,
						"WEIGHTS_0":5
					},
					"indices":6,
					"material":0
				}
			]
		},
		{
			"name":"Malha.001",
			"primitives":[
				{
					"attributes":{
						"POSITION":8,
						"NORMAL":9,
						"TEXCOORD_0":10,
						"TEXCOORD_1":11,
						"JOINTS_0":12,
						"WEIGHTS_0":13
					},
					"indices":6,
					"material":1
				}
			]
		}
	],
	"textures":[
		{
			"sampler":0,
			"source":0
		}
	],
	"images":[
		{
			"mimeType":"image/png",
			"name":"brownImage.png",
			"uri":"../brownImage.png"
		}
	],
	"skins":[
		{
			"inverseBindMatrices":7,
			"joints":[
				7,
				6,
				2,
				1,
				0,
				5,
				4,
				3,
				10,
				9,
				8,
				13,
				12,
				11,
				14
			],
			"name":"Arma\u00e7\u00e3o"
		},
		{
			"inverseBindMatrices":7,
			"joints":[
				24,
				23,
				19,
				18,
				17,
				22,
				21,
				20,
				27,
				26,
				25,
				30,
				29,
				28,
				31
			],
			"name":"Arma\u00e7\u00e3o.001"
		}
	],
	"accessors":[
		{
			"bufferView":0,
			"componentType":5126,
			"count":79391,
			"max":[
				3.819960594177246,
				6.03205680847168,
				0.6125144362449646
			],
			"min":[
				-3.819537878036499,
				0.0009754084749147296,
				-0.9942631721496582
			],
			"type":"VEC3"
		},
		{
			"bufferView":1,
			"componentType":5126,
			"count":79391,
			"type":"VEC3"
		},
		{
			"bufferView":2,
			"componentType":5126,
			"count":79391,
			"type":"VEC2"
		},
		{
			"bufferView":3,
			"componentType":5126,
			"count":79391,
			"type":"VEC2"
		},
		{
			"bufferView":4,
			"componentType":5121,
			"count":79391,
			"type":"VEC4"
		},
		{
			"bufferView":5,
			"componentType":5126,
			"count":79391,
			"type":"VEC4"
		},
		{
			"bufferView":6,
			"componentType":5125,
			"count":117984,
			"type":"SCALAR"
		},
		{
			"bufferView":7,
			"componentType":5126,
			"count":15,
			"type":"MAT4"
		},
		{
			"bufferView":8,
			"componentType":5126,
			"count":79391,
			"max":[
				3.819960594177246,
				6.03205680847168,
				0.6125144362449646
			],
			"min":[
				-3.819537878036499,
				0.0009754084749147296,
				-0.9942631721496582
			],
			"type":"VEC3"
		},
		{
			"bufferView":9,
			"componentType":5126,
			"count":79391,
			"type":"VEC3"
		},
		{
			"bufferView":10,
			"componentType":5126,
			"count":79391,
			"type":"VEC2"
		},
		{
			"bufferView":11,
			"componentType":5126,
			"count":79391,
			"type":"VEC2"
		},
		{
			"bufferView":12,
			"componentType":5121,
			"count":79391,
			"type":"VEC4"
		},
		{
			"bufferView":13,
			"componentType":5126,
			"count":79391,
			"type":"VEC4"
		}
	],
	"bufferViews":[
		{
			"buffer":0,
			"byteLength":952692,
			"byteOffset":0,
			"target":34962
		},
		{
			"buffer":0,
			"byteLength":952692,
			"byteOffset":952692,
			"target":34962
		},
		{
			"buffer":0,
			"byteLength":635128,
			"byteOffset":1905384,
			"target":34962
		},
		{
			"buffer":0,
			"byteLength":635128,
			"byteOffset":2540512,
			"target":34962
		},
		{
			"buffer":0,
			"byteLength":317564,
			"byteOffset":3175640,
			"target":34962
		},
		{
			"buffer":0,
			"byteLength":1270256,
			"byteOffset":3493204,
			"target":34962
		},
		{
			"buffer":0,
			"byteLength":471936,
			"byteOffset":4763460,
			"target":34963
		},
		{
			"buffer":0,
			"byteLength":960,
			"byteOffset":5235396
		},
		{
			"buffer":0,
			"byteLength":952692,
			"byteOffset":5236356,
			"target":34962
		},
		{
			"buffer":0,
			"byteLength":952692,
			"byteOffset":6189048,
			"target":34962
		},
		{
			"buffer":0,
			"byteLength":635128,
			"byteOffset":7141740,
			"target":34962
		},
		{
			"buffer":0,
			"byteLength":635128,
			"byteOffset":7776868,
			"target":34962
		},
		{
			"buffer":0,
			"byteLength":317564,
			"byteOffset":8411996,
			"target":34962
		},
		{
			"buffer":0,
			"byteLength":1270256,
			"byteOffset":8729560,
			"target":34962
		}
	],
	"samplers":[
		{
			"magFilter":9729,
			"minFilter":9987
		}
	],
	"buffers":[
		{
			"byteLength":9999816,
			"uri":"mapinguariBrown.bin"
		}
	]
}
