{
	"asset":{
		"generator":"Khronos glTF Blender I/O v4.1.63",
		"version":"2.0"
	},
	"scene":0,
	"scenes":[
		{
			"name":"Scene",
			"nodes":[
				16,
				33
			]
		}
	],
	"nodes":[
		{
			"name":"Osso(s).004",
			"rotation":[
				0.042687151581048965,
				-0.00030557886930182576,
				-0.058116037398576736,
				0.99739670753479
			],
			"scale":[
				0.9999999403953552,
				1.0000001192092896,
				1.000000238418579
			],
			"translation":[
				2.9651044997081044e-07,
				1.3928594589233398,
				2.561137080192566e-08
			]
		},
		{
			"children":[
				0
			],
			"name":"Osso(s).003",
			"rotation":[
				-0.016699396073818207,
				0.00853873509913683,
				-0.45517218112945557,
				0.8902059197425842
			],
			"scale":[
				0.9999999403953552,
				0.9999999403953552,
				1
			],
			"translation":[
				6.74745308515412e-07,
				0.35522663593292236,
				6.729792545456803e-08
			]
		},
		{
			"children":[
				1
			],
			"name":"Osso(s).002",
			"rotation":[
				-4.774653206141011e-08,
				-4.992216773302971e-08,
				0.5105569362640381,
				0.8598440289497375
			],
			"scale":[
				1,
				1,
				1.0000001192092896
			],
			"translation":[
				-3.601722653456818e-07,
				1.1388630867004395,
				2.2994813164700645e-08
			]
		},
		{
			"name":"Osso(s).007",
			"rotation":[
				0.04238693043589592,
				0.0004196917871013284,
				0.06486373394727707,
				0.9969934225082397
			],
			"scale":[
				0.9999999403953552,
				1,
				1.0000001192092896
			],
			"translation":[
				6.657288764699842e-08,
				1.4506336450576782,
				6.239861249923706e-08
			]
		},
		{
			"children":[
				3
			],
			"name":"Osso(s).006",
			"rotation":[
				-0.015961898490786552,
				-0.008338645100593567,
				0.4629668891429901,
				0.8861926198005676
			],
			"scale":[
				0.9999999403953552,
				1,
				1
			],
			"translation":[
				-6.503033773697098e-07,
				0.3130865693092346,
				7.405031254847927e-09
			]
		},
		{
			"children":[
				4
			],
			"name":"Osso(s).005",
			"rotation":[
				2.0712083426133177e-07,
				1.0982034837070387e-07,
				-0.535942554473877,
				0.8442544937133789
			],
			"scale":[
				0.9999999403953552,
				0.9999999403953552,
				1.0000001192092896
			],
			"translation":[
				1.427419249466766e-07,
				1.1388630867004395,
				2.299486112633531e-08
			]
		},
		{
			"children":[
				2,
				5
			],
			"name":"Osso(s).001",
			"rotation":[
				1.4268024983721261e-07,
				6.071389613282463e-09,
				0.0004178756498731673,
				0.9999998807907104
			],
			"scale":[
				1,
				1,
				1.0000001192092896
			],
			"translation":[
				-6.593261048237764e-09,
				1.0000014305114746,
				-1.950668249151022e-08
			]
		},
		{
			"children":[
				6
			],
			"name":"Osso(s)",
			"rotation":[
				-1.0461499755365367e-07,
				4.097332251262742e-08,
				-1.8626449271863521e-09,
				1
			],
			"scale":[
				1.0000001192092896,
				1.0000001192092896,
				1.0000001192092896
			],
			"translation":[
				-1.4872057363390923e-08,
				1.054535914590815e-06,
				0.8985151648521423
			]
		},
		{
			"name":"Osso(s).010",
			"rotation":[
				-0.20890240371227264,
				-0.015175491571426392,
				-0.0008662655018270016,
				0.9778184294700623
			],
			"scale":[
				0.9999998807907104,
				0.9999998211860657,
				0.9999997615814209
			],
			"translation":[
				-5.21540641784668e-08,
				1.4663453102111816,
				1.7626889814437163e-07
			]
		},
		{
			"children":[
				8
			],
			"name":"Osso(s).009",
			"rotation":[
				0.19189772009849548,
				0.006875817663967609,
				-0.03514130413532257,
				0.9807615280151367
			],
			"scale":[
				0.9999998807907104,
				1,
				0.9999999403953552
			],
			"translation":[
				-6.378198946777047e-08,
				0.32455652952194214,
				-1.3206972937496175e-07
			]
		},
		{
			"children":[
				9
			],
			"name":"Osso(s).008",
			"rotation":[
				-0.48578301072120667,
				-0.5138237476348877,
				-0.48578324913978577,
				0.5138236284255981
			],
			"scale":[
				1.0000001192092896,
				1,
				1.0000001192092896
			],
			"translation":[
				-1.4872057363390923e-08,
				1.054535914590815e-06,
				0.8985151648521423
			]
		},
		{
			"name":"Osso(s).013",
			"rotation":[
				-0.2292151153087616,
				0.02138071320950985,
				-0.017320292070508003,
				0.9729868173599243
			],
			"scale":[
				0.9999998211860657,
				0.9999998807907104,
				0.9999998211860657
			],
			"translation":[
				-1.043081283569336e-07,
				1.4292497634887695,
				2.823709905896976e-07
			]
		},
		{
			"children":[
				11
			],
			"name":"Osso(s).012",
			"rotation":[
				0.20176255702972412,
				-0.011189911514520645,
				0.054233450442552567,
				0.9778677821159363
			],
			"scale":[
				1,
				1,
				1.0000001192092896
			],
			"translation":[
				7.827416936834197e-08,
				0.3141310513019562,
				-4.974074272467988e-07
			]
		},
		{
			"children":[
				12
			],
			"name":"Osso(s).011",
			"rotation":[
				-0.48092713952064514,
				0.5183715224266052,
				0.48092710971832275,
				0.51837158203125
			],
			"translation":[
				-1.4872057363390923e-08,
				1.054535914590815e-06,
				0.8985151648521423
			]
		},
		{
			"name":"Osso(s).014",
			"rotation":[
				-0.6997133493423462,
				-0.10204905271530151,
				0.6988193988800049,
				0.10788262635469437
			],
			"scale":[
				1,
				0.9999999403953552,
				1.0000001192092896
			],
			"translation":[
				-1.4872057363390923e-08,
				1.054535914590815e-06,
				0.8985151648521423
			]
		},
		{
			"mesh":0,
			"name":"corpo",
			"skin":0
		},
		{
			"children":[
				15,
				7,
				10,
				13,
				14
			],
			"name":"Arma\u00e7\u00e3o",
			"rotation":[
				0,
				0,
				-0.9999912977218628,
				0.004169139079749584
			],
			"scale":[
				1.0068655014038086,
				1.0068655014038086,
				1.0068657398223877
			],
			"translation":[
				-0.000102996826171875,
				5.262880802154541,
				-0.7779014110565186
			]
		},
		{
			"name":"Osso(s).004",
			"rotation":[
				0.042687151581048965,
				-0.00030557886930182576,
				-0.058116037398576736,
				0.99739670753479
			],
			"scale":[
				0.9999999403953552,
				1.0000001192092896,
				1.000000238418579
			],
			"translation":[
				2.9651044997081044e-07,
				1.3928594589233398,
				2.561137080192566e-08
			]
		},
		{
			"children":[
				17
			],
			"name":"Osso(s).003",
			"rotation":[
				-0.016699396073818207,
				0.00853873509913683,
				-0.45517218112945557,
				0.8902059197425842
			],
			"scale":[
				0.9999999403953552,
				0.9999999403953552,
				1
			],
			"translation":[
				6.74745308515412e-07,
				0.35522663593292236,
				6.729792545456803e-08
			]
		},
		{
			"children":[
				18
			],
			"name":"Osso(s).002",
			"rotation":[
				-4.774653206141011e-08,
				-4.992216773302971e-08,
				0.5105569362640381,
				0.8598440289497375
			],
			"scale":[
				1,
				1,
				1.0000001192092896
			],
			"translation":[
				-3.601722653456818e-07,
				1.1388630867004395,
				2.2994813164700645e-08
			]
		},
		{
			"name":"Osso(s).007",
			"rotation":[
				0.04238693043589592,
				0.0004196917871013284,
				0.06486373394727707,
				0.9969934225082397
			],
			"scale":[
				0.9999999403953552,
				1,
				1.0000001192092896
			],
			"translation":[
				6.657288764699842e-08,
				1.4506336450576782,
				6.239861249923706e-08
			]
		},
		{
			"children":[
				20
			],
			"name":"Osso(s).006",
			"rotation":[
				-0.015961898490786552,
				-0.008338645100593567,
				0.4629668891429901,
				0.8861926198005676
			],
			"scale":[
				0.9999999403953552,
				1,
				1
			],
			"translation":[
				-6.503033773697098e-07,
				0.3130865693092346,
				7.405031254847927e-09
			]
		},
		{
			"children":[
				21
			],
			"name":"Osso(s).005",
			"rotation":[
				2.0712083426133177e-07,
				1.0982034837070387e-07,
				-0.535942554473877,
				0.8442544937133789
			],
			"scale":[
				0.9999999403953552,
				0.9999999403953552,
				1.0000001192092896
			],
			"translation":[
				1.427419249466766e-07,
				1.1388630867004395,
				2.299486112633531e-08
			]
		},
		{
			"children":[
				19,
				22
			],
			"name":"Osso(s).001",
			"rotation":[
				1.4268024983721261e-07,
				6.071389613282463e-09,
				0.0004178756498731673,
				0.9999998807907104
			],
			"scale":[
				1,
				1,
				1.0000001192092896
			],
			"translation":[
				-6.593261048237764e-09,
				1.0000014305114746,
				-1.950668249151022e-08
			]
		},
		{
			"children":[
				23
			],
			"name":"Osso(s)",
			"rotation":[
				-1.0461499755365367e-07,
				4.097332251262742e-08,
				-1.8626449271863521e-09,
				1
			],
			"scale":[
				1.0000001192092896,
				1.0000001192092896,
				1.0000001192092896
			],
			"translation":[
				-1.4872057363390923e-08,
				1.054535914590815e-06,
				0.8985151648521423
			]
		},
		{
			"name":"Osso(s).010",
			"rotation":[
				-0.20890240371227264,
				-0.015175491571426392,
				-0.0008662655018270016,
				0.9778184294700623
			],
			"scale":[
				0.9999998807907104,
				0.9999998211860657,
				0.9999997615814209
			],
			"translation":[
				-5.21540641784668e-08,
				1.4663453102111816,
				1.7626889814437163e-07
			]
		},
		{
			"children":[
				25
			],
			"name":"Osso(s).009",
			"rotation":[
				0.19189772009849548,
				0.006875817663967609,
				-0.03514130413532257,
				0.9807615280151367
			],
			"scale":[
				0.9999998807907104,
				1,
				0.9999999403953552
			],
			"translation":[
				-6.378198946777047e-08,
				0.32455652952194214,
				-1.3206972937496175e-07
			]
		},
		{
			"children":[
				26
			],
			"name":"Osso(s).008",
			"rotation":[
				-0.48578301072120667,
				-0.5138237476348877,
				-0.48578324913978577,
				0.5138236284255981
			],
			"scale":[
				1.0000001192092896,
				1,
				1.0000001192092896
			],
			"translation":[
				-1.4872057363390923e-08,
				1.054535914590815e-06,
				0.8985151648521423
			]
		},
		{
			"name":"Osso(s).013",
			"rotation":[
				-0.2292151153087616,
				0.02138071320950985,
				-0.017320292070508003,
				0.9729868173599243
			],
			"scale":[
				0.9999998211860657,
				0.9999998807907104,
				0.9999998211860657
			],
			"translation":[
				-1.043081283569336e-07,
				1.4292497634887695,
				2.823709905896976e-07
			]
		},
		{
			"children":[
				28
			],
			"name":"Osso(s).012",
			"rotation":[
				0.20176255702972412,
				-0.011189911514520645,
				0.054233450442552567,
				0.9778677821159363
			],
			"scale":[
				1,
				1,
				1.0000001192092896
			],
			"translation":[
				7.827416936834197e-08,
				0.3141310513019562,
				-4.974074272467988e-07
			]
		},
		{
			"children":[
				29
			],
			"name":"Osso(s).011",
			"rotation":[
				-0.48092713952064514,
				0.5183715224266052,
				0.48092710971832275,
				0.51837158203125
			],
			"translation":[
				-1.4872057363390923e-08,
				1.054535914590815e-06,
				0.8985151648521423
			]
		},
		{
			"name":"Osso(s).014",
			"rotation":[
				-0.6997133493423462,
				-0.10204905271530151,
				0.6988193988800049,
				0.10788262635469437
			],
			"scale":[
				1,
				0.9999999403953552,
				1.0000001192092896
			],
			"translation":[
				-1.4872057363390923e-08,
				1.054535914590815e-06,
				0.8985151648521423
			]
		},
		{
			"mesh":1,
			"name":"corpo.001",
			"skin":1
		},
		{
			"children":[
				32,
				24,
				27,
				30,
				31
			],
			"name":"Arma\u00e7\u00e3o.001",
			"rotation":[
				0,
				0,
				-0.9999912977218628,
				0.004169139079749584
			],
			"scale":[
				1.0068655014038086,
				1.0068655014038086,
				1.0068657398223877
			],
			"translation":[
				-0.000102996826171875,
				5.262880802154541,
				-0.7779014110565186
			]
		}
	],
	"materials":[
		{
			"doubleSided":true,
			"name":"Materiais.002",
			"pbrMetallicRoughness":{
				"baseColorTexture":{
					"index":0
				},
				"metallicFactor":0,
				"roughnessFactor":0.5
			}
		}
	],
	"meshes":[
		{
			"name":"Malha",
			"primitives":[
				{
					"attributes":{
						"POSITION":0,
						"NORMAL":1,
						"TEXCOORD_0":2,
						"TEXCOORD_1":3,
						"JOINTS_0":4,
						"WEIGHTS_0":5
					},
					"indices":6,
					"material":0
				}
			]
		},
		{
			"name":"Malha.001",
			"primitives":[
				{
					"attributes":{
						"POSITION":8,
						"NORMAL":9,
						"TEXCOORD_0":10,
						"TEXCOORD_1":11,
						"JOINTS_0":12,
						"WEIGHTS_0":13
					},
					"indices":6,
					"material":0
				}
			]
		}
	],
	"textures":[
		{
			"sampler":0,
			"source":0
		}
	],
	"images":[
		{
			"mimeType":"image/png",
			"name":"redImage",
			"uri":"textures/redImage.png"
		}
	],
	"skins":[
		{
			"inverseBindMatrices":7,
			"joints":[
				7,
				6,
				2,
				1,
				0,
				5,
				4,
				3,
				10,
				9,
				8,
				13,
				12,
				11,
				14
			],
			"name":"Arma\u00e7\u00e3o"
		},
		{
			"inverseBindMatrices":7,
			"joints":[
				24,
				23,
				19,
				18,
				17,
				22,
				21,
				20,
				27,
				26,
				25,
				30,
				29,
				28,
				31
			],
			"name":"Arma\u00e7\u00e3o.001"
		}
	],
	"accessors":[
		{
			"bufferView":0,
			"componentType":5126,
			"count":79477,
			"max":[
				3.8199596405029297,
				6.0320563316345215,
				0.6125145554542542
			],
			"min":[
				-3.8195371627807617,
				0.0009750733152031898,
				-0.9942632913589478
			],
			"type":"VEC3"
		},
		{
			"bufferView":1,
			"componentType":5126,
			"count":79477,
			"type":"VEC3"
		},
		{
			"bufferView":2,
			"componentType":5126,
			"count":79477,
			"type":"VEC2"
		},
		{
			"bufferView":3,
			"componentType":5126,
			"count":79477,
			"type":"VEC2"
		},
		{
			"bufferView":4,
			"componentType":5121,
			"count":79477,
			"type":"VEC4"
		},
		{
			"bufferView":5,
			"componentType":5126,
			"count":79477,
			"type":"VEC4"
		},
		{
			"bufferView":6,
			"componentType":5125,
			"count":117984,
			"type":"SCALAR"
		},
		{
			"bufferView":7,
			"componentType":5126,
			"count":15,
			"type":"MAT4"
		},
		{
			"bufferView":8,
			"componentType":5126,
			"count":79477,
			"max":[
				3.8199596405029297,
				6.0320563316345215,
				0.6125145554542542
			],
			"min":[
				-3.8195371627807617,
				0.0009750733152031898,
				-0.9942632913589478
			],
			"type":"VEC3"
		},
		{
			"bufferView":9,
			"componentType":5126,
			"count":79477,
			"type":"VEC3"
		},
		{
			"bufferView":10,
			"componentType":5126,
			"count":79477,
			"type":"VEC2"
		},
		{
			"bufferView":11,
			"componentType":5126,
			"count":79477,
			"type":"VEC2"
		},
		{
			"bufferView":12,
			"componentType":5121,
			"count":79477,
			"type":"VEC4"
		},
		{
			"bufferView":13,
			"componentType":5126,
			"count":79477,
			"type":"VEC4"
		}
	],
	"bufferViews":[
		{
			"buffer":0,
			"byteLength":953724,
			"byteOffset":0,
			"target":34962
		},
		{
			"buffer":0,
			"byteLength":953724,
			"byteOffset":953724,
			"target":34962
		},
		{
			"buffer":0,
			"byteLength":635816,
			"byteOffset":1907448,
			"target":34962
		},
		{
			"buffer":0,
			"byteLength":635816,
			"byteOffset":2543264,
			"target":34962
		},
		{
			"buffer":0,
			"byteLength":317908,
			"byteOffset":3179080,
			"target":34962
		},
		{
			"buffer":0,
			"byteLength":1271632,
			"byteOffset":3496988,
			"target":34962
		},
		{
			"buffer":0,
			"byteLength":471936,
			"byteOffset":4768620,
			"target":34963
		},
		{
			"buffer":0,
			"byteLength":960,
			"byteOffset":5240556
		},
		{
			"buffer":0,
			"byteLength":953724,
			"byteOffset":5241516,
			"target":34962
		},
		{
			"buffer":0,
			"byteLength":953724,
			"byteOffset":6195240,
			"target":34962
		},
		{
			"buffer":0,
			"byteLength":635816,
			"byteOffset":7148964,
			"target":34962
		},
		{
			"buffer":0,
			"byteLength":635816,
			"byteOffset":7784780,
			"target":34962
		},
		{
			"buffer":0,
			"byteLength":317908,
			"byteOffset":8420596,
			"target":34962
		},
		{
			"buffer":0,
			"byteLength":1271632,
			"byteOffset":8738504,
			"target":34962
		}
	],
	"samplers":[
		{
			"magFilter":9729,
			"minFilter":9987
		}
	],
	"buffers":[
		{
			"byteLength":10010136,
			"uri":"mapinguari_red.bin"
		}
	]
}
