{
	"asset":{
		"generator":"Khronos glTF Blender I/O v4.1.63",
		"version":"2.0"
	},
	"scene":0,
	"scenes":[
		{
			"name":"Scene",
			"nodes":[
				16
			]
		}
	],
	"nodes":[
		{
			"name":"Osso(s).004",
			"rotation":[
				0.04268714413046837,
				-0.00030557916034013033,
				-0.05811602622270584,
				0.9973967671394348
			],
			"scale":[
				0.9999998807907104,
				0.9999999403953552,
				1
			],
			"translation":[
				2.270006262961033e-07,
				1.3928587436676025,
				2.584420144557953e-08
			]
		},
		{
			"children":[
				0
			],
			"name":"Osso(s).003",
			"rotation":[
				-0.016699396073818207,
				0.008538736961781979,
				-0.45517221093177795,
				0.8902058601379395
			],
			"scale":[
				1,
				1,
				0.9999999403953552
			],
			"translation":[
				4.4821732103628165e-08,
				0.3552264869213104,
				1.9948711127426577e-08
			]
		},
		{
			"children":[
				1
			],
			"name":"Osso(s).002",
			"rotation":[
				-4.774653206141011e-08,
				-4.992217128574339e-08,
				0.5105568766593933,
				0.8598439693450928
			],
			"scale":[
				1.0000001192092896,
				1.0000001192092896,
				1
			],
			"translation":[
				-3.58363251962146e-07,
				1.138863205909729,
				-1.0613256762326273e-07
			]
		},
		{
			"name":"Osso(s).007",
			"rotation":[
				0.04238693416118622,
				0.000419692019931972,
				0.06486372649669647,
				0.9969934225082397
			],
			"translation":[
				6.570294885932526e-08,
				1.4506335258483887,
				3.771856427192688e-08
			]
		},
		{
			"children":[
				3
			],
			"name":"Osso(s).006",
			"rotation":[
				-0.015961898490786552,
				-0.008338646963238716,
				0.4629669189453125,
				0.8861926198005676
			],
			"scale":[
				0.9999998807907104,
				0.9999999403953552,
				0.9999999403953552
			],
			"translation":[
				-3.285683192189026e-07,
				0.313086599111557,
				2.6124899576984717e-08
			]
		},
		{
			"children":[
				4
			],
			"name":"Osso(s).005",
			"rotation":[
				2.0712083426133177e-07,
				1.098203270544218e-07,
				-0.5359424948692322,
				0.8442544937133789
			],
			"translation":[
				1.429211238246353e-07,
				1.138863205909729,
				-1.0613251788527123e-07
			]
		},
		{
			"children":[
				2,
				5
			],
			"name":"Osso(s).001",
			"rotation":[
				1.426802356263579e-07,
				6.071391833728512e-09,
				0.0004178761737421155,
				0.9999998807907104
			],
			"translation":[
				-5.474775299774137e-09,
				1.0000007152557373,
				1.2277596717069628e-09
			]
		},
		{
			"children":[
				6
			],
			"name":"Osso(s)",
			"rotation":[
				0.7071066498756409,
				2.9631058495738216e-08,
				2.8313964506310185e-08,
				0.70710688829422
			],
			"translation":[
				-1.199805410578847e-08,
				-0.8985150456428528,
				5.776438456450705e-07
			]
		},
		{
			"name":"Osso(s).010",
			"rotation":[
				-0.20890240371227264,
				-0.015175491571426392,
				-0.0008662621839903295,
				0.9778183698654175
			],
			"scale":[
				1.0000001192092896,
				1,
				1
			],
			"translation":[
				5.4016709327697754e-08,
				1.4663459062576294,
				1.484958644937251e-08
			]
		},
		{
			"children":[
				8
			],
			"name":"Osso(s).009",
			"rotation":[
				0.19189772009849548,
				0.006875818129628897,
				-0.03514130786061287,
				0.9807614684104919
			],
			"scale":[
				0.9999999403953552,
				1,
				0.9999999403953552
			],
			"translation":[
				-1.1999993887457094e-07,
				0.32455652952194214,
				-6.12798373822443e-07
			]
		},
		{
			"children":[
				9
			],
			"name":"Osso(s).008",
			"rotation":[
				0.019827723503112793,
				-0.01982763595879078,
				-0.7068288922309875,
				0.7068286538124084
			],
			"scale":[
				1,
				0.9999999403953552,
				1
			],
			"translation":[
				-1.199805410578847e-08,
				-0.8985150456428528,
				5.776438456450705e-07
			]
		},
		{
			"name":"Osso(s).013",
			"rotation":[
				-0.2292150855064392,
				0.02138071320950985,
				-0.01732029765844345,
				0.9729868173599243
			],
			"scale":[
				1,
				1.0000001192092896,
				1.0000001192092896
			],
			"translation":[
				7.82310962677002e-08,
				1.4292501211166382,
				2.1663137772520713e-07
			]
		},
		{
			"children":[
				11
			],
			"name":"Osso(s).012",
			"rotation":[
				0.20176255702972412,
				-0.011189907789230347,
				0.054233450442552567,
				0.9778677821159363
			],
			"scale":[
				1.0000001192092896,
				1,
				1
			],
			"translation":[
				1.462753251857407e-10,
				0.31413108110427856,
				-5.080709115645732e-07
			]
		},
		{
			"children":[
				12
			],
			"name":"Osso(s).011",
			"rotation":[
				0.026477178558707237,
				0.026477215811610222,
				0.7066108584403992,
				0.706610918045044
			],
			"scale":[
				0.9999999403953552,
				1,
				1
			],
			"translation":[
				-1.199805410578847e-08,
				-0.8985150456428528,
				5.776438456450705e-07
			]
		},
		{
			"name":"Osso(s).014",
			"rotation":[
				-0.4184875786304474,
				-0.5662994384765625,
				0.4219803512096405,
				0.571056604385376
			],
			"scale":[
				0.9999999403953552,
				0.9999998211860657,
				1
			],
			"translation":[
				-1.199805410578847e-08,
				-0.8985150456428528,
				5.776438456450705e-07
			]
		},
		{
			"mesh":0,
			"name":"corpo",
			"skin":0
		},
		{
			"children":[
				15,
				7,
				10,
				13,
				14
			],
			"name":"Arma\u00e7\u00e3o",
			"rotation":[
				1,
				0,
				0,
				0
			]
		}
	],
	"materials":[
		{
			"doubleSided":true,
			"name":"redColor",
			"pbrMetallicRoughness":{
				"baseColorTexture":{
					"index":0
				},
				"metallicFactor":0,
				"roughnessFactor":0.5
			}
		}
	],
	"meshes":[
		{
			"name":"Malha",
			"primitives":[
				{
					"attributes":{
						"POSITION":0,
						"NORMAL":1,
						"TEXCOORD_0":2,
						"JOINTS_0":3,
						"WEIGHTS_0":4
					},
					"indices":5,
					"material":0
				}
			]
		}
	],
	"textures":[
		{
			"sampler":0,
			"source":0
		}
	],
	"images":[
		{
			"mimeType":"image/png",
			"name":"redImage",
			"uri":"textures/redImage.png"
		}
	],
	"skins":[
		{
			"inverseBindMatrices":6,
			"joints":[
				7,
				6,
				2,
				1,
				0,
				5,
				4,
				3,
				10,
				9,
				8,
				13,
				12,
				11,
				14
			],
			"name":"Arma\u00e7\u00e3o"
		}
	],
	"accessors":[
		{
			"bufferView":0,
			"componentType":5126,
			"count":79477,
			"max":[
				3.80021595954895,
				1.3809348344802856,
				0.7643742561340332
			],
			"min":[
				-3.7888216972351074,
				-0.21488654613494873,
				-5.231008529663086
			],
			"type":"VEC3"
		},
		{
			"bufferView":1,
			"componentType":5126,
			"count":79477,
			"type":"VEC3"
		},
		{
			"bufferView":2,
			"componentType":5126,
			"count":79477,
			"type":"VEC2"
		},
		{
			"bufferView":3,
			"componentType":5121,
			"count":79477,
			"type":"VEC4"
		},
		{
			"bufferView":4,
			"componentType":5126,
			"count":79477,
			"type":"VEC4"
		},
		{
			"bufferView":5,
			"componentType":5125,
			"count":117984,
			"type":"SCALAR"
		},
		{
			"bufferView":6,
			"componentType":5126,
			"count":15,
			"type":"MAT4"
		}
	],
	"bufferViews":[
		{
			"buffer":0,
			"byteLength":953724,
			"byteOffset":0,
			"target":34962
		},
		{
			"buffer":0,
			"byteLength":953724,
			"byteOffset":953724,
			"target":34962
		},
		{
			"buffer":0,
			"byteLength":635816,
			"byteOffset":1907448,
			"target":34962
		},
		{
			"buffer":0,
			"byteLength":317908,
			"byteOffset":2543264,
			"target":34962
		},
		{
			"buffer":0,
			"byteLength":1271632,
			"byteOffset":2861172,
			"target":34962
		},
		{
			"buffer":0,
			"byteLength":471936,
			"byteOffset":4132804,
			"target":34963
		},
		{
			"buffer":0,
			"byteLength":960,
			"byteOffset":4604740
		}
	],
	"samplers":[
		{
			"magFilter":9729,
			"minFilter":9987
		}
	],
	"buffers":[
		{
			"byteLength":4605700,
			"uri":"mapinguari_red6.bin"
		}
	]
}
